<?xml version="1.0" encoding="utf-8"?>
<!-- Generator: Adobe Illustrator 23.0.1, SVG Export Plug-In . SVG Version: 6.00 Build 0)  -->
<svg version="1.1" id="Ebene_1" xmlns="http://www.w3.org/2000/svg" xmlns:xlink="http://www.w3.org/1999/xlink" x="0px" y="0px"
	 viewBox="0 0 158.6 158.6" style="enable-background:new 0 0 158.6 158.6;" xml:space="preserve">
<!-- <style type="text/css">
	.st0{fill:#FFFFFF;}
</style> -->
<path class="st0" d="M122.6,64.6h-12c-2.1-3.3-5.7-5.5-9.8-5.5h-0.4c-0.2,0-23.4,0.2-43.8,5.8c-13.9,3.8-24.3,9.8-30.8,17.8
	c-1.2,1.5-1.3,3.5-0.4,5.1c0.2,0.4,5.5,9.2,18.6,9.2c4.5-0.1,10.2-2.8,17.5-8.4c2.6-2,6.3-1.6,8.4,0.8l4.1,4.7
	c0.2,0.2,0.4,0.4,0.6,0.6c3.9,3,8.7,4.6,13.6,4.6h12.6c4.2,0,7.8-2.2,9.9-5.6h12c4.1,0,7.4-3.3,7.4-7.4V72
	C130,67.9,126.6,64.6,122.6,64.6z M55.9,81.5c-7.8,6-11.3,6.6-12.1,6.6c-4,0-6.7-1.3-8.5-2.5c5.4-5.1,13.3-9.2,23.5-11.9
	c7.7-2.1,16.1-3.4,23.4-4.2l-9.6,10.9C67.4,77.4,60.8,77.7,55.9,81.5z M100.7,90.5H88.1c-2.8,0-5.5-0.9-7.8-2.5l-1.2-1.4l16-18.2
	c2.4-0.1,4.1-0.2,5.1-0.2h0.4c1.4,0,2.6,1.2,2.6,2.6v17.1C103.3,89.3,102.2,90.5,100.7,90.5z M121,84.9h-8.6V73.6h8.6V84.9z"/>
</svg>
