<?xml version="1.0" encoding="iso-8859-1"?>
<!-- Generator: Adobe Illustrator 19.0.0, SVG Export Plug-In . SVG Version: 6.00 Build 0)  -->
<svg xmlns="http://www.w3.org/2000/svg" xmlns:xlink="http://www.w3.org/1999/xlink" version="1.1" id="Layer_1" x="0px" y="0px" viewBox="0 0 502.002 502.002" style="enable-background:new 0 0 502.002 502.002;" xml:space="preserve" width="512" height="512">
<g>
	<path d="M286.136,410.955c-3.892-3.919-10.224-3.942-14.143-0.053c-3.92,3.891-3.943,10.223-0.053,14.143l4.963,5   c1.955,1.969,4.526,2.955,7.098,2.955c2.547,0,5.095-0.967,7.045-2.902c3.92-3.891,3.943-10.223,0.053-14.143L286.136,410.955z"/>
	<path d="M347.783,500.499c1.551,0.959,3.358,1.503,5.246,1.503c0.739,0,1.49-0.082,2.241-0.254   c5.384-1.233,8.748-6.597,7.516-11.98l-55.578-242.69h79.561v2.669h-3.605c-5.522,0-10,4.478-10,10s4.478,10,10,10h3.605v3.322   h-3.605c-5.522,0-10,4.478-10,10s4.478,10,10,10h3.605v3.605c0,5.522,4.478,10,10,10s10-4.478,10-10v-3.605h3.604   c5.522,0,10-4.478,10-10s-4.478-10-10-10h-3.604v-3.322h3.604c5.522,0,10-4.478,10-10s-4.478-10-10-10h-3.604v-12.351   c0-0.054-0.007-0.106-0.008-0.16c0.059-3.694-1.933-7.205-5.307-8.993l-96.722-51.283v-38.402h82.037v3.322h-3.605   c-5.522,0-10,4.478-10,10s4.478,10,10,10h3.605v3.322h-3.605c-5.522,0-10,4.478-10,10s4.478,10,10,10h3.605v3.605   c0,5.522,4.478,10,10,10s10-4.478,10-10v-3.605h3.604c5.522,0,10-4.478,10-10s-4.478-10-10-10h-3.604v-3.322h3.604   c5.522,0,10-4.478,10-10s-4.478-10-10-10h-3.604v-12.351c0-0.14-0.015-0.277-0.021-0.415c0.215-3.839-1.8-7.538-5.294-9.391   l-62.76-33.276c-4.878-2.587-10.932-0.728-13.52,4.15c-2.587,4.88-0.729,10.933,4.15,13.52l27.237,14.441h-51.83V74.455   c0-0.058-0.015-0.116-0.02-0.174c-0.033-1.908-0.594-3.803-1.705-5.44L259.276,4.386C257.415,1.643,254.315,0,251.001,0   s-6.414,1.643-8.275,4.386l-42.334,62.398l-99.841,52.937c-3.495,1.853-5.509,5.552-5.294,9.391   c-0.006,0.139-0.021,0.275-0.021,0.415v12.351H91.63c-5.522,0-10,4.478-10,10s4.478,10,10,10h3.605v3.322H91.63   c-5.522,0-10,4.478-10,10s4.478,10,10,10h3.605v3.605c0,5.522,4.478,10,10,10s10-4.478,10-10v-3.605h3.604c5.522,0,10-4.478,10-10   s-4.478-10-10-10h-3.604v-3.322h3.604c5.522,0,10-4.478,10-10s-4.478-10-10-10h-3.604v-3.322h82.036v38.402l-96.721,51.283   c-3.374,1.789-5.366,5.299-5.307,8.994c-0.001,0.054-0.008,0.106-0.008,0.16v12.351H91.63c-5.522,0-10,4.478-10,10s4.478,10,10,10   h3.605v3.322H91.63c-5.522,0-10,4.478-10,10s4.478,10,10,10h3.605v3.605c0,5.522,4.478,10,10,10s10-4.478,10-10v-3.605h3.604   c5.522,0,10-4.478,10-10s-4.478-10-10-10h-3.604v-3.322h3.604c5.522,0,10-4.478,10-10s-4.478-10-10-10h-3.604v-2.669h79.56   l-55.578,242.69c-1.232,5.384,2.132,10.747,7.516,11.98c0.832,0.191,1.66,0.259,2.475,0.24c0.081,0.002,0.162,0.012,0.243,0.012   c2.56,0,5.118-0.977,7.071-2.929l99.107-99.107h66.072l14.125,61.679l-22.753-22.753c-3.906-3.904-10.236-3.904-14.143,0   c-3.905,3.905-3.905,10.237,0,14.143l46.427,45.361L347.783,500.499z M192.703,345.808l21.265,21.265   c1.953,1.952,4.512,2.929,7.071,2.929s5.118-0.977,7.071-2.929c3.905-3.905,3.905-10.237,0-14.143l-25.456-25.456l30.98-25.789   c4.245-3.533,4.821-9.839,1.288-14.083c-3.531-4.243-9.838-4.822-14.083-1.288l-17.93,14.926l10.395-45.39l86.309,71.844   l-52.269,52.269h-62.463L192.703,345.808z M284.73,172.976h-67.459v-34.101h67.459V172.976z M234.407,247.396h52.354l12.331,53.844   L234.407,247.396z M217.271,227.077v-34.102h67.459v34.102H217.271z M217.271,118.557V84.455h67.459v34.102H217.271z    M251.001,27.812l24.86,36.644h-49.721L251.001,27.812z M197.271,91.076v27.481h-51.829L197.271,91.076z M197.271,199.597v27.481   h-51.829L197.271,199.597z M166.328,460.98l13.973-61.016h47.043L166.328,460.98z M275.629,379.964l33.76-33.76l7.731,33.76   H275.629z M304.73,227.077v-27.481l51.829,27.481H304.73z"/>
</g>















</svg>
